<?xml version="1.0"?>
<svg xmlns="http://www.w3.org/2000/svg" xmlns:xlink="http://www.w3.org/1999/xlink" xmlns:svgjs="http://svgjs.com/svgjs" version="1.1" width="512" height="512" x="0" y="0" viewBox="0 0 512 512" style="enable-background:new 0 0 512 512" xml:space="preserve" class=""><g><g xmlns="http://www.w3.org/2000/svg"><g><path d="m496 128v284a19.994 19.994 0 0 1 -20 20h-440a19.994 19.994 0 0 1 -20-20v-284z" fill="#9eddec" data-original="#78b9eb" style="" class=""/><path d="m496 100v28h-480v-28a19.994 19.994 0 0 1 20-20h440a19.994 19.994 0 0 1 20 20z" fill="#f44336" data-original="#3e3d42" style="" class=""/><circle cx="256" cy="216" fill="#f44336" r="56" data-original="#d80027" style="" class=""/></g><g><path d="m208 352h-8v-40a8 8 0 0 0 -14.146-5.122l-40 48a8 8 0 0 0 6.146 13.122h32v24a8 8 0 0 0 16 0v-24h8a8 8 0 0 0 0-16zm-24 0h-14.92l14.92-17.9z" fill="#140053" data-original="#000000" style="" class=""/><path d="m360 352h-8v-40a8 8 0 0 0 -14.146-5.122l-40 48a8 8 0 0 0 6.146 13.122h32v24a8 8 0 0 0 16 0v-24h8a8 8 0 0 0 0-16zm-24 0h-14.92l14.92-17.9z" fill="#140053" data-original="#000000" style="" class=""/><path d="m280 304h-48a8 8 0 0 0 -8 8v80a8 8 0 0 0 8 8h48a8 8 0 0 0 8-8v-80a8 8 0 0 0 -8-8zm-8 80h-32v-64h32z" fill="#140053" data-original="#000000" style="" class=""/><path d="m476 72h-440a28.031 28.031 0 0 0 -28 28v312a28.031 28.031 0 0 0 28 28h440a28.031 28.031 0 0 0 28-28v-312a28.031 28.031 0 0 0 -28-28zm12 340a12.01 12.01 0 0 1 -12 12h-440a12.01 12.01 0 0 1 -12-12v-276h464zm0-292h-464v-20a12.01 12.01 0 0 1 12-12h440a12.01 12.01 0 0 1 12 12z" fill="#140053" data-original="#000000" style="" class=""/><path d="m40 112h8a8 8 0 0 0 0-16h-8a8 8 0 0 0 0 16z" fill="#140053" data-original="#000000" style="" class=""/><path d="m72 112h8a8 8 0 0 0 0-16h-8a8 8 0 0 0 0 16z" fill="#140053" data-original="#000000" style="" class=""/><path d="m104 112h8a8 8 0 0 0 0-16h-8a8 8 0 0 0 0 16z" fill="#140053" data-original="#000000" style="" class=""/><path d="m256 280a64 64 0 1 0 -64-64 64.072 64.072 0 0 0 64 64zm0-112a48 48 0 1 1 -48 48 48.054 48.054 0 0 1 48-48z" fill="#140053" data-original="#000000" style="" class=""/><path d="m230.343 241.657a8 8 0 0 0 11.314 0l14.343-14.343 14.343 14.343a8 8 0 1 0 11.314-11.314l-14.343-14.343 14.343-14.343a8 8 0 0 0 -11.314-11.314l-14.343 14.343-14.343-14.343a8 8 0 0 0 -11.314 11.314l14.343 14.343-14.343 14.343a8 8 0 0 0 0 11.314z" fill="#140053" data-original="#000000" style="" class=""/></g></g></g></svg>
