<?xml version="1.0"?>
<svg xmlns="http://www.w3.org/2000/svg" xmlns:xlink="http://www.w3.org/1999/xlink" xmlns:svgjs="http://svgjs.com/svgjs" version="1.1" width="512" height="512" x="0" y="0" viewBox="0 0 512 512" style="enable-background:new 0 0 512 512" xml:space="preserve" class=""><g>
<g xmlns="http://www.w3.org/2000/svg">
	<g>
		<path d="M299.721,322.771l4.538,9.597C303.656,328.724,302.05,325.431,299.721,322.771z" fill="#140053" data-original="#000000" style="" class=""/>
	</g>
</g>
<g xmlns="http://www.w3.org/2000/svg">
	<g>
		<path d="M501.961,427.829h-27.005v-24.306c0.947,0.286,1.922,0.435,2.895,0.435c2.979,0,5.926-1.319,7.907-3.845    c3.421-4.363,2.657-10.674-1.705-14.095l-43.811-34.363c-3.622-2.841-8.712-2.856-12.348-0.034l-30.68,23.79    c-0.16,0.117-0.316,0.24-0.47,0.366l-12.972,10.056c-4.382,3.397-5.18,9.704-1.783,14.085c2.684,3.464,7.184,4.676,11.116,3.362    v24.549H360.52l-46.672-98.669c-0.952-4.289-2.849-8.301-5.563-11.764l-50.976-107.757c-0.007-0.014-0.013-0.028-0.02-0.042    l-66.113-139.76c-1.659-3.509-5.193-5.746-9.074-5.746c-3.881,0-7.416,2.238-9.075,5.746l-66.229,140.017L0.964,433.578    c-1.471,3.11-1.247,6.756,0.593,9.664c1.841,2.906,5.042,4.668,8.482,4.668h344.124c0.01,0,0.02-0.002,0.031-0.002h48.912    c0.013,0,0.025,0.002,0.039,0.002h61.77c0.013,0,0.026-0.002,0.039-0.002h37.006c5.544,0,10.039-4.495,10.039-10.039    C512,432.324,507.505,427.829,501.961,427.829z M182.102,97.607l53.392,112.869l-53.393,34.359l-53.386-34.36L182.102,97.607z     M72.282,427.831H25.894l26.982-57.039v12.766c0,12.717,8.098,23.575,19.406,27.69V427.831z M91.688,383.558    c0,5.165-4.194,9.368-9.353,9.376c-0.005,0-0.01-0.001-0.014-0.001c-0.004,0-0.01,0.001-0.014,0.001    c-5.158-0.008-9.353-4.21-9.353-9.376v-48.008c0-5.165,4.202-9.367,9.367-9.367c2.504,0,4.857,0.974,6.625,2.742    c1.769,1.768,2.742,4.12,2.742,6.625V383.558z M159.292,383.558c0,5.165-4.197,9.367-9.361,9.376    c-0.004,0-0.009-0.001-0.013-0.001c-0.005,0-0.01,0.001-0.016,0.001c-5.159-0.007-9.354-4.21-9.354-9.376v-48.008    c0-5.165,4.202-9.367,9.367-9.367c2.504,0,4.857,0.974,6.625,2.742c1.775,1.775,2.752,4.127,2.752,6.625V383.558z     M226.886,383.558c0,5.166-4.195,9.369-9.354,9.376c-0.005,0-0.01-0.001-0.016-0.001c-0.004,0-0.009,0.001-0.013,0.001    c-5.163-0.009-9.361-4.211-9.361-9.376v-48.008c0-5.165,4.205-9.367,9.377-9.367c2.504,0,4.857,0.974,6.625,2.742    c1.769,1.768,2.742,4.12,2.742,6.625V383.558z M275.075,427.83h-47.519v-16.582c11.309-4.113,19.409-14.972,19.409-27.69v-48.008    c0-7.867-3.063-15.263-8.623-20.823c-5.561-5.56-12.955-8.622-20.822-8.622c-16.241,0-29.455,13.209-29.455,29.445v48.008    c0,12.717,8.102,23.575,19.413,27.69v16.583h-47.52v-16.583c11.311-4.115,19.413-14.974,19.413-27.69v-48.008    c0-7.861-3.066-15.256-8.633-20.823c-5.561-5.56-12.955-8.622-20.822-8.622c-16.236,0-29.445,13.209-29.445,29.445v48.008    c0,12.718,8.1,23.576,19.409,27.691v16.582H92.361v-16.583c11.308-4.115,19.406-14.974,19.406-27.69v-48.008    c0-7.867-3.063-15.263-8.623-20.823c-5.291-5.29-12.242-8.313-19.681-8.595l36.593-77.355l56.611,36.436    c1.654,1.065,3.544,1.597,5.433,1.597s3.779-0.532,5.432-1.597l56.619-36.435l36.725,77.635    c-14.236,2.061-25.208,14.338-25.208,29.136v48.008c0,12.717,8.098,23.575,19.406,27.69V427.83z M294.481,383.558    c0,5.165-4.194,9.368-9.353,9.376c-0.005,0-0.01-0.001-0.014-0.001c-0.004,0-0.01,0.001-0.014,0.001    c-5.158-0.008-9.353-4.21-9.353-9.376v-48.008c0-5.165,4.202-9.367,9.367-9.367c2.504,0,4.857,0.974,6.619,2.736    c0.148,0.15,0.298,0.308,0.434,0.464c1.148,1.311,1.903,2.909,2.188,4.623c0.084,0.509,0.127,1.029,0.127,1.544V383.558z     M295.153,427.831v-16.583c11.308-4.115,19.406-14.974,19.406-27.69v-5.936l23.75,50.209H295.153z M454.876,427.829h-10.812    v-17.142c0-5.545-4.496-10.039-10.039-10.039c-5.544,0-10.039,4.495-10.039,10.039v17.142h-10.802v-39.395h0.001l20.825-16.149    l20.866,16.367V427.829z" fill="#140053" data-original="#000000" style="" class=""/>
	</g>
</g>
<g xmlns="http://www.w3.org/2000/svg">
	<g>
		<path d="M346.003,266.862c-17.161,0-31.122,13.962-31.122,31.122c0,17.16,13.961,31.122,31.122,31.122    c17.161,0,31.122-13.962,31.122-31.122C377.124,280.824,363.164,266.862,346.003,266.862z M346.003,309.027    c-6.089,0-11.043-4.954-11.043-11.043c0-6.089,4.954-11.043,11.043-11.043c6.089,0,11.043,4.954,11.043,11.043    C357.046,304.073,352.091,309.027,346.003,309.027z" fill="#140053" data-original="#000000" style="" class=""/>
	</g>
</g>
<g xmlns="http://www.w3.org/2000/svg">
	<g>
		<path d="M309.991,161.943c-9.385,0-17.806,4.181-23.516,10.771l-10.386-18.874c-2.671-4.858-8.775-6.629-13.635-3.955    c-4.857,2.673-6.629,8.778-3.954,13.635l22.605,41.083c1.058,2.645,2.444,5.1,4.126,7.302c0.009,0.013,0.018,0.026,0.027,0.038    c5.792,7.559,14.89,12.242,24.733,12.242c17.161,0,31.122-13.962,31.122-31.122S327.152,161.943,309.991,161.943z     M309.991,204.107c-3.253,0-6.274-1.443-8.335-3.804l-2.243-4.076c-0.303-1.019-0.466-2.079-0.466-3.163    c0-6.089,4.954-11.043,11.043-11.043c6.089,0,11.043,4.954,11.043,11.043C321.034,199.153,316.08,204.107,309.991,204.107z" fill="#140053" data-original="#000000" style="" class=""/>
	</g>
</g>
<g xmlns="http://www.w3.org/2000/svg">
	<g>
		<path d="M344.684,230.208c-12.92,0-12.942,20.078,0,20.078C357.603,250.287,357.624,230.208,344.684,230.208z" fill="#140053" data-original="#000000" style="" class=""/>
	</g>
</g>
<g xmlns="http://www.w3.org/2000/svg">
	<g>
		<path d="M356.395,346.622c-12.919,0-12.941,20.078,0,20.078C369.315,366.7,369.336,346.622,356.395,346.622z" fill="#140053" data-original="#000000" style="" class=""/>
	</g>
</g>
<g xmlns="http://www.w3.org/2000/svg">
	<g>
		<path d="M251.446,119.198c-12.919,0-12.941,20.078,0,20.078C264.366,139.276,264.387,119.198,251.446,119.198z" fill="#140053" data-original="#000000" style="" class=""/>
	</g>
</g>
<g xmlns="http://www.w3.org/2000/svg">
</g>
<g xmlns="http://www.w3.org/2000/svg">
</g>
<g xmlns="http://www.w3.org/2000/svg">
</g>
<g xmlns="http://www.w3.org/2000/svg">
</g>
<g xmlns="http://www.w3.org/2000/svg">
</g>
<g xmlns="http://www.w3.org/2000/svg">
</g>
<g xmlns="http://www.w3.org/2000/svg">
</g>
<g xmlns="http://www.w3.org/2000/svg">
</g>
<g xmlns="http://www.w3.org/2000/svg">
</g>
<g xmlns="http://www.w3.org/2000/svg">
</g>
<g xmlns="http://www.w3.org/2000/svg">
</g>
<g xmlns="http://www.w3.org/2000/svg">
</g>
<g xmlns="http://www.w3.org/2000/svg">
</g>
<g xmlns="http://www.w3.org/2000/svg">
</g>
<g xmlns="http://www.w3.org/2000/svg">
</g>
</g></svg>
