<svg id="Layer_1" data-name="Layer 1" xmlns="http://www.w3.org/2000/svg" xmlns:xlink="http://www.w3.org/1999/xlink" viewBox="0 0 242.76 361.52"><defs><style>.cls-1{opacity:0.65;fill:url(#radial-gradient);}.cls-2{fill:url(#linear-gradient);}.cls-3{fill:#1d1652;}.cls-4{fill:#fff;}</style><radialGradient id="radial-gradient" cx="191.33" cy="97.11" r="151.1" gradientUnits="userSpaceOnUse"><stop offset="0.65" stop-color="#bee4e2"/><stop offset="0.68" stop-color="#c7e8e6" stop-opacity="0.88"/><stop offset="0.77" stop-color="#dbf0ef" stop-opacity="0.62"/><stop offset="0.84" stop-color="#eaf6f6" stop-opacity="0.41"/><stop offset="0.91" stop-color="#f6fbfb" stop-opacity="0.26"/><stop offset="0.96" stop-color="#fdfefe" stop-opacity="0.16"/><stop offset="1" stop-color="#fff" stop-opacity="0.13"/></radialGradient><linearGradient id="linear-gradient" x1="70.59" y1="328.89" x2="281.73" y2="90.8" gradientUnits="userSpaceOnUse"><stop offset="0" stop-color="#a0dbea"/><stop offset="0.39" stop-color="#1d1652"/></linearGradient></defs><path class="cls-1" d="M233.21,33.87a69.26,69.26,0,0,0-32,7.76C168.8,6.39,127.87-9.29,96.89,5.63A57.63,57.63,0,0,0,74.32,25.29,64.52,64.52,0,0,0,59.39,66.58c0,1.92.1,3.82.26,5.69C58,99,64.39,130.16,79.51,160.43,112.08,225.62,172.66,262,214.83,241.7c24.77-11.93,37.66-40.77,37.49-75.75,28.6-8.12,49.52-34,49.52-64.7C301.84,64,271.11,33.87,233.21,33.87Z" transform="translate(-59.39 0)"/><path class="cls-2" d="M89.65,361.52s8.27-47.75,92.55-84.82S318.93,107.8,297.25,56.44c0,0-8.12-14.43-15.25,3a32.29,32.29,0,0,0-.46,3.4c-.06,1.27,3.51,112-103.46,151.24-2.45.89.59-31.63,17.34-45.55s20.07,2.44,19,4.42l-1.84,3.48s5.92-1.5,6.18-4.76a23,23,0,0,0-5.36-15.5s6.4-1.64,6.88-3,.45-5.86-4.38-10.57-3.25-4.31-15-9.38-4.47-15.75-4-16.47-16.28,6.88-11.39,18.72c0,0-15.85-6.81-28.64,1.38,0,0,22.16-1.44,27.43,7.68,2.42,4.2-5.78,6-5.78,6S75.83,215.39,89.65,361.52Z" transform="translate(-59.39 0)"/><path class="cls-3" d="M258,143.72s21.78-38.78,16.86-68.1c-1.38-8.21-8.31-6.88-8.31-6.88s-5.19,0-5.51,10.4S268.5,90.78,258,143.72Z" transform="translate(-59.39 0)"/><path class="cls-3" d="M249.92,155.07s15.27-33.94,8.33-61.86c-1.94-7.82-7.8-7.31-7.8-7.31S246,85.36,246.64,95,254.12,106.7,249.92,155.07Z" transform="translate(-59.39 0)"/><path class="cls-3" d="M239.28,172.16S253,142.32,247,117.92c-1.65-6.83-6.82-6.34-6.82-6.34s-3.95-.43-3.42,8S243.31,129.77,239.28,172.16Z" transform="translate(-59.39 0)"/><path class="cls-4" d="M213,148a10.43,10.43,0,0,0-5.33-5.34c-3.48-1.74,1.5,2.19,1.5,2.19s-2.3,1.36-.59,3.15S213,148,213,148Z" transform="translate(-59.39 0)"/><rect class="cls-3" x="103.7" y="66.54" width="74.81" height="21.45" transform="translate(158.98 -63.84) rotate(90)"/><circle class="cls-3" cx="81.72" cy="114.67" r="10.72"/><circle class="cls-3" cx="81.72" cy="39.86" r="10.72"/><rect class="cls-3" x="44.32" y="66.54" width="74.81" height="21.45"/><circle class="cls-3" cx="119.12" cy="77.26" r="10.72"/><circle class="cls-3" cx="44.32" cy="77.26" r="10.72"/></svg>