<?xml version="1.0"?>
<svg xmlns="http://www.w3.org/2000/svg" xmlns:xlink="http://www.w3.org/1999/xlink" xmlns:svgjs="http://svgjs.com/svgjs" version="1.1" width="512" height="512" x="0" y="0" viewBox="0 0 511.999 511.999" style="enable-background:new 0 0 512 512" xml:space="preserve" class=""><g transform="matrix(1,0,0,1,0,0)">
<g xmlns="http://www.w3.org/2000/svg">
	<g>
		<path d="M465.009,38.195H152.701c-5.544,0-10.039,4.495-10.039,10.039c0,5.545,4.496,10.039,10.039,10.039h312.308    c5.544,0,10.039-4.495,10.039-10.039C475.049,42.69,470.553,38.195,465.009,38.195z" fill="#fdfffa" data-original="#000000" style="" class=""/>
	</g>
</g>
<g xmlns="http://www.w3.org/2000/svg">
	<g>
		<path d="M381.001,0H100.003C94.46,0,89.964,4.495,89.964,10.039c0,5.545,4.496,10.039,10.039,10.039h280.998    c5.544,0,10.039-4.495,10.039-10.039C391.04,4.495,386.545,0,381.001,0z" fill="#fdfffa" data-original="#000000" style="" class=""/>
	</g>
</g>
<g xmlns="http://www.w3.org/2000/svg">
	<g>
		<path d="M442.103,491.918H328.155c-10.086-7.257-49.833-38.49-51.266-80.813c-1.09-32.198,19.868-64.616,62.292-96.355    c34.02-25.453,60.007-53.372,77.24-82.982c6.567-11.284,11.859-22.821,15.887-34.535c0.118-0.297,0.223-0.6,0.313-0.91    c4.37-12.933,7.194-26.08,8.412-39.347c4.03-43.942-10.833-73.838-11.469-75.089c-1.711-3.372-5.171-5.497-8.953-5.497H123.01    c-2.787,0-5.449,1.159-7.349,3.2c-1.899,2.04-2.864,4.779-2.664,7.559c2.178,30.331,13.034,49.936,25.423,65.617    c0.113,0.148,0.227,0.294,0.347,0.435c4.649,5.844,9.501,11.151,14.186,16.268c24.798,27.083,48.219,52.664,23.927,142.769    c-12.559,46.573-7.893,87.202,13.869,120.759c18.375,28.335,45.877,46.938,71.099,58.922H122.295    c-5.544,0-10.039,4.495-10.039,10.039s4.496,10.039,10.039,10.039h202.654c0.026,0,0.052,0.004,0.078,0.004    s0.051-0.004,0.077-0.004h116.997c5.546,0.001,10.041-4.494,10.041-10.038S447.646,491.918,442.103,491.918z M207.573,422.032    c-8.141-12.565-13.433-26.411-15.876-41.452h33.627c5.544,0,10.039-4.495,10.039-10.039c0-5.545-4.496-10.039-10.039-10.039    h-35.191c0.014-13.538,2.054-27.899,6.136-43.038c5.874-21.789,9.377-40.929,10.554-57.987h89.007    c5.544,0,10.039-4.495,10.039-10.039c0-5.545-4.496-10.039-10.039-10.039h-88.736c-0.492-10.267-2.005-19.716-4.54-28.501    c-7.029-24.359-20.701-39.591-34.055-54.182h101.568c5.544,0,10.039-4.495,10.039-10.039s-4.496-10.039-10.039-10.039h-118.71    c-7.88-10.722-14.231-23.089-17.071-40.167H413.95c3.535,9.514,9.649,30.74,7.088,58.674c-0.873,9.52-2.702,18.977-5.45,28.338    h-155.01c-5.544,0-10.039,4.495-10.039,10.039c0,5.545,4.496,10.039,10.039,10.039H408.2    c-15.016,33.923-42.395,66.196-81.047,95.115c-2.389,1.787-4.7,3.581-6.968,5.379h-73.683c-5.544,0-10.039,4.495-10.039,10.039    s4.496,10.039,10.039,10.039h51.07c-28.074,28.257-41.768,57.634-40.751,87.654c0.954,28.157,14.9,51.647,29.408,68.631    C260.037,470.312,227.235,452.379,207.573,422.032z" fill="#fdfffa" data-original="#000000" style="" class=""/>
	</g>
</g>
<g xmlns="http://www.w3.org/2000/svg">
	<g>
		<path d="M475.758,298.362c-15.684,0-31.369,0-47.053,0c-12.919,0-12.941,20.078,0,20.078c15.684,0,31.369,0,47.053,0    C488.678,318.441,488.7,298.362,475.758,298.362z" fill="#fdfffa" data-original="#000000" style="" class=""/>
	</g>
</g>
<g xmlns="http://www.w3.org/2000/svg">
	<g>
		<path d="M414.804,336.861c-16.041,0-32.081,0-48.123,0c-12.919,0-12.94,20.078,0,20.078c16.041,0,32.082,0,48.123,0    C427.724,356.939,427.745,336.861,414.804,336.861z" fill="#fdfffa" data-original="#000000" style="" class=""/>
	</g>
</g>
<g xmlns="http://www.w3.org/2000/svg">
	<g>
		<path d="M123.931,235.269c-16.397,0-32.794,0-49.192,0c-12.919,0-12.941,20.078,0,20.078c16.397,0,32.795,0,49.192,0    C136.85,255.347,136.871,235.269,123.931,235.269z" fill="#fdfffa" data-original="#000000" style="" class=""/>
	</g>
</g>
<g xmlns="http://www.w3.org/2000/svg">
	<g>
		<path d="M306.261,135.816c-12.919,0-12.941,20.078,0,20.078C319.181,155.894,319.202,135.816,306.261,135.816z" fill="#fdfffa" data-original="#000000" style="" class=""/>
	</g>
</g>
<g xmlns="http://www.w3.org/2000/svg">
	<g>
		<path d="M74.739,193.563c-12.832,0-25.665,0-38.498,0c-12.919,0-12.941,20.078,0,20.078c12.833,0,25.665,0,38.498,0    C87.658,213.642,87.679,193.563,74.739,193.563z" fill="#fdfffa" data-original="#000000" style="" class=""/>
	</g>
</g>
<g xmlns="http://www.w3.org/2000/svg">
</g>
<g xmlns="http://www.w3.org/2000/svg">
</g>
<g xmlns="http://www.w3.org/2000/svg">
</g>
<g xmlns="http://www.w3.org/2000/svg">
</g>
<g xmlns="http://www.w3.org/2000/svg">
</g>
<g xmlns="http://www.w3.org/2000/svg">
</g>
<g xmlns="http://www.w3.org/2000/svg">
</g>
<g xmlns="http://www.w3.org/2000/svg">
</g>
<g xmlns="http://www.w3.org/2000/svg">
</g>
<g xmlns="http://www.w3.org/2000/svg">
</g>
<g xmlns="http://www.w3.org/2000/svg">
</g>
<g xmlns="http://www.w3.org/2000/svg">
</g>
<g xmlns="http://www.w3.org/2000/svg">
</g>
<g xmlns="http://www.w3.org/2000/svg">
</g>
<g xmlns="http://www.w3.org/2000/svg">
</g>
</g></svg>
